<mxfile host="app.diagrams.net" agent="Mozilla/5.0 (X11; Linux x86_64; rv:133.0) Gecko/20100101 Firefox/133.0" version="25.0.3">
  <diagram name="Page-1" id="CZ3SqI1D9FNeI2SUPUIB">
    <mxGraphModel dx="2537" dy="893" grid="1" gridSize="10" guides="1" tooltips="1" connect="1" arrows="1" fold="1" page="1" pageScale="1" pageWidth="850" pageHeight="1100" math="0" shadow="0">
      <root>
        <mxCell id="0" />
        <mxCell id="1" parent="0" />
        <mxCell id="n-pGe4P9k0GeMnMvcZWK-6" value="dhcp_discover_response" style="swimlane;fontStyle=1;align=center;verticalAlign=top;childLayout=stackLayout;horizontal=1;startSize=26;horizontalStack=0;resizeParent=1;resizeParentMax=0;resizeLast=0;collapsible=1;marginBottom=0;whiteSpace=wrap;html=1;fontSize=14;" vertex="1" parent="1">
          <mxGeometry x="990" y="290" width="280" height="86" as="geometry" />
        </mxCell>
        <mxCell id="n-pGe4P9k0GeMnMvcZWK-7" value="+ dhcp_message_type: enum" style="text;strokeColor=none;fillColor=none;align=left;verticalAlign=top;spacingLeft=4;spacingRight=4;overflow=hidden;rotatable=0;points=[[0,0.5],[1,0.5]];portConstraint=eastwest;whiteSpace=wrap;html=1;fontSize=14;" vertex="1" parent="n-pGe4P9k0GeMnMvcZWK-6">
          <mxGeometry y="26" width="280" height="26" as="geometry" />
        </mxCell>
        <mxCell id="n-pGe4P9k0GeMnMvcZWK-8" value="" style="line;strokeWidth=1;fillColor=none;align=left;verticalAlign=middle;spacingTop=-1;spacingLeft=3;spacingRight=3;rotatable=0;labelPosition=right;points=[];portConstraint=eastwest;strokeColor=inherit;fontSize=14;" vertex="1" parent="n-pGe4P9k0GeMnMvcZWK-6">
          <mxGeometry y="52" width="280" height="8" as="geometry" />
        </mxCell>
        <mxCell id="n-pGe4P9k0GeMnMvcZWK-9" value="+ method(type): type" style="text;strokeColor=none;fillColor=none;align=left;verticalAlign=top;spacingLeft=4;spacingRight=4;overflow=hidden;rotatable=0;points=[[0,0.5],[1,0.5]];portConstraint=eastwest;whiteSpace=wrap;html=1;fontSize=14;" vertex="1" parent="n-pGe4P9k0GeMnMvcZWK-6">
          <mxGeometry y="60" width="280" height="26" as="geometry" />
        </mxCell>
        <mxCell id="n-pGe4P9k0GeMnMvcZWK-14" value="&amp;lt;&amp;lt;enum&amp;gt;&amp;gt; dhcp_message_type" style="swimlane;fontStyle=0;childLayout=stackLayout;horizontal=1;startSize=26;fillColor=none;horizontalStack=0;resizeParent=1;resizeParentMax=0;resizeLast=0;collapsible=1;marginBottom=0;whiteSpace=wrap;html=1;fontSize=14;" vertex="1" parent="1">
          <mxGeometry x="1080" y="500" width="320" height="234" as="geometry" />
        </mxCell>
        <mxCell id="n-pGe4P9k0GeMnMvcZWK-20" value="DISCOVER" style="text;strokeColor=none;fillColor=none;align=left;verticalAlign=top;spacingLeft=4;spacingRight=4;overflow=hidden;rotatable=0;points=[[0,0.5],[1,0.5]];portConstraint=eastwest;whiteSpace=wrap;html=1;fontSize=14;" vertex="1" parent="n-pGe4P9k0GeMnMvcZWK-14">
          <mxGeometry y="26" width="320" height="26" as="geometry" />
        </mxCell>
        <mxCell id="n-pGe4P9k0GeMnMvcZWK-16" value="OFFER" style="text;strokeColor=none;fillColor=none;align=left;verticalAlign=top;spacingLeft=4;spacingRight=4;overflow=hidden;rotatable=0;points=[[0,0.5],[1,0.5]];portConstraint=eastwest;whiteSpace=wrap;html=1;fontSize=14;" vertex="1" parent="n-pGe4P9k0GeMnMvcZWK-14">
          <mxGeometry y="52" width="320" height="26" as="geometry" />
        </mxCell>
        <mxCell id="n-pGe4P9k0GeMnMvcZWK-19" value="REQUEST" style="text;strokeColor=none;fillColor=none;align=left;verticalAlign=top;spacingLeft=4;spacingRight=4;overflow=hidden;rotatable=0;points=[[0,0.5],[1,0.5]];portConstraint=eastwest;whiteSpace=wrap;html=1;fontSize=14;" vertex="1" parent="n-pGe4P9k0GeMnMvcZWK-14">
          <mxGeometry y="78" width="320" height="26" as="geometry" />
        </mxCell>
        <mxCell id="n-pGe4P9k0GeMnMvcZWK-22" value="ACK" style="text;strokeColor=none;fillColor=none;align=left;verticalAlign=top;spacingLeft=4;spacingRight=4;overflow=hidden;rotatable=0;points=[[0,0.5],[1,0.5]];portConstraint=eastwest;whiteSpace=wrap;html=1;fontSize=14;" vertex="1" parent="n-pGe4P9k0GeMnMvcZWK-14">
          <mxGeometry y="104" width="320" height="26" as="geometry" />
        </mxCell>
        <mxCell id="n-pGe4P9k0GeMnMvcZWK-23" value="NAK" style="text;strokeColor=none;fillColor=none;align=left;verticalAlign=top;spacingLeft=4;spacingRight=4;overflow=hidden;rotatable=0;points=[[0,0.5],[1,0.5]];portConstraint=eastwest;whiteSpace=wrap;html=1;fontSize=14;" vertex="1" parent="n-pGe4P9k0GeMnMvcZWK-14">
          <mxGeometry y="130" width="320" height="26" as="geometry" />
        </mxCell>
        <mxCell id="n-pGe4P9k0GeMnMvcZWK-26" value="DECLINE" style="text;strokeColor=none;fillColor=none;align=left;verticalAlign=top;spacingLeft=4;spacingRight=4;overflow=hidden;rotatable=0;points=[[0,0.5],[1,0.5]];portConstraint=eastwest;whiteSpace=wrap;html=1;fontSize=14;" vertex="1" parent="n-pGe4P9k0GeMnMvcZWK-14">
          <mxGeometry y="156" width="320" height="26" as="geometry" />
        </mxCell>
        <mxCell id="n-pGe4P9k0GeMnMvcZWK-21" value="RELEASE" style="text;strokeColor=none;fillColor=none;align=left;verticalAlign=top;spacingLeft=4;spacingRight=4;overflow=hidden;rotatable=0;points=[[0,0.5],[1,0.5]];portConstraint=eastwest;whiteSpace=wrap;html=1;fontSize=14;" vertex="1" parent="n-pGe4P9k0GeMnMvcZWK-14">
          <mxGeometry y="182" width="320" height="26" as="geometry" />
        </mxCell>
        <mxCell id="n-pGe4P9k0GeMnMvcZWK-15" value="INFORM" style="text;strokeColor=none;fillColor=none;align=left;verticalAlign=top;spacingLeft=4;spacingRight=4;overflow=hidden;rotatable=0;points=[[0,0.5],[1,0.5]];portConstraint=eastwest;whiteSpace=wrap;html=1;fontSize=14;" vertex="1" parent="n-pGe4P9k0GeMnMvcZWK-14">
          <mxGeometry y="208" width="320" height="26" as="geometry" />
        </mxCell>
        <mxCell id="n-pGe4P9k0GeMnMvcZWK-24" value="" style="endArrow=open;html=1;rounded=0;endFill=0;exitX=0.5;exitY=0;exitDx=0;exitDy=0;entryX=0.5;entryY=0;entryDx=0;entryDy=0;fontSize=14;" edge="1" parent="1" source="n-pGe4P9k0GeMnMvcZWK-6" target="n-pGe4P9k0GeMnMvcZWK-14">
          <mxGeometry width="50" height="50" relative="1" as="geometry">
            <mxPoint x="1160" y="480" as="sourcePoint" />
            <mxPoint x="1250" y="490" as="targetPoint" />
          </mxGeometry>
        </mxCell>
        <mxCell id="n-pGe4P9k0GeMnMvcZWK-27" value="Model" style="swimlane;fontStyle=1;align=center;verticalAlign=top;childLayout=stackLayout;horizontal=1;startSize=26;horizontalStack=0;resizeParent=1;resizeParentMax=0;resizeLast=0;collapsible=1;marginBottom=0;whiteSpace=wrap;html=1;fontSize=14;" vertex="1" parent="1">
          <mxGeometry x="580" y="490" width="340" height="170" as="geometry" />
        </mxCell>
        <mxCell id="n-pGe4P9k0GeMnMvcZWK-28" value="+ State: enum" style="text;strokeColor=none;fillColor=none;align=left;verticalAlign=top;spacingLeft=4;spacingRight=4;overflow=hidden;rotatable=0;points=[[0,0.5],[1,0.5]];portConstraint=eastwest;whiteSpace=wrap;html=1;fontSize=14;" vertex="1" parent="n-pGe4P9k0GeMnMvcZWK-27">
          <mxGeometry y="26" width="340" height="26" as="geometry" />
        </mxCell>
        <mxCell id="n-pGe4P9k0GeMnMvcZWK-31" value="+ DHCP_Response_Timeout: int" style="text;strokeColor=none;fillColor=none;align=left;verticalAlign=top;spacingLeft=4;spacingRight=4;overflow=hidden;rotatable=0;points=[[0,0.5],[1,0.5]];portConstraint=eastwest;whiteSpace=wrap;html=1;fontSize=14;" vertex="1" parent="n-pGe4P9k0GeMnMvcZWK-27">
          <mxGeometry y="52" width="340" height="26" as="geometry" />
        </mxCell>
        <mxCell id="n-pGe4P9k0GeMnMvcZWK-36" value="+ Devices: [Device]" style="text;strokeColor=none;fillColor=none;align=left;verticalAlign=top;spacingLeft=4;spacingRight=4;overflow=hidden;rotatable=0;points=[[0,0.5],[1,0.5]];portConstraint=eastwest;whiteSpace=wrap;html=1;fontSize=14;" vertex="1" parent="n-pGe4P9k0GeMnMvcZWK-27">
          <mxGeometry y="78" width="340" height="26" as="geometry" />
        </mxCell>
        <mxCell id="n-pGe4P9k0GeMnMvcZWK-29" value="" style="line;strokeWidth=1;fillColor=none;align=left;verticalAlign=middle;spacingTop=-1;spacingLeft=3;spacingRight=3;rotatable=0;labelPosition=right;points=[];portConstraint=eastwest;strokeColor=inherit;fontSize=14;" vertex="1" parent="n-pGe4P9k0GeMnMvcZWK-27">
          <mxGeometry y="104" width="340" height="8" as="geometry" />
        </mxCell>
        <mxCell id="n-pGe4P9k0GeMnMvcZWK-30" value="&lt;div&gt;+ Getter and Setter for all variables&lt;br&gt;&lt;/div&gt;" style="text;strokeColor=none;fillColor=none;align=left;verticalAlign=top;spacingLeft=4;spacingRight=4;overflow=hidden;rotatable=0;points=[[0,0.5],[1,0.5]];portConstraint=eastwest;whiteSpace=wrap;html=1;fontSize=14;" vertex="1" parent="n-pGe4P9k0GeMnMvcZWK-27">
          <mxGeometry y="112" width="340" height="28" as="geometry" />
        </mxCell>
        <mxCell id="n-pGe4P9k0GeMnMvcZWK-63" value="&lt;div&gt;+ Add_Device (Device)&lt;br&gt;&lt;/div&gt;" style="text;strokeColor=none;fillColor=none;align=left;verticalAlign=top;spacingLeft=4;spacingRight=4;overflow=hidden;rotatable=0;points=[[0,0.5],[1,0.5]];portConstraint=eastwest;whiteSpace=wrap;html=1;fontSize=14;" vertex="1" parent="n-pGe4P9k0GeMnMvcZWK-27">
          <mxGeometry y="140" width="340" height="30" as="geometry" />
        </mxCell>
        <mxCell id="n-pGe4P9k0GeMnMvcZWK-32" value="Device" style="swimlane;fontStyle=1;align=center;verticalAlign=top;childLayout=stackLayout;horizontal=1;startSize=26;horizontalStack=0;resizeParent=1;resizeParentMax=0;resizeLast=0;collapsible=1;marginBottom=0;whiteSpace=wrap;html=1;fontSize=14;" vertex="1" parent="1">
          <mxGeometry x="680" y="800" width="160" height="138" as="geometry" />
        </mxCell>
        <mxCell id="n-pGe4P9k0GeMnMvcZWK-33" value="+ IP Addresse: str" style="text;strokeColor=none;fillColor=none;align=left;verticalAlign=top;spacingLeft=4;spacingRight=4;overflow=hidden;rotatable=0;points=[[0,0.5],[1,0.5]];portConstraint=eastwest;whiteSpace=wrap;html=1;fontSize=14;" vertex="1" parent="n-pGe4P9k0GeMnMvcZWK-32">
          <mxGeometry y="26" width="160" height="26" as="geometry" />
        </mxCell>
        <mxCell id="n-pGe4P9k0GeMnMvcZWK-37" value="+ MAC Addresse: str" style="text;strokeColor=none;fillColor=none;align=left;verticalAlign=top;spacingLeft=4;spacingRight=4;overflow=hidden;rotatable=0;points=[[0,0.5],[1,0.5]];portConstraint=eastwest;whiteSpace=wrap;html=1;fontSize=14;" vertex="1" parent="n-pGe4P9k0GeMnMvcZWK-32">
          <mxGeometry y="52" width="160" height="26" as="geometry" />
        </mxCell>
        <mxCell id="n-pGe4P9k0GeMnMvcZWK-38" value="+ Port: [int]" style="text;strokeColor=none;fillColor=none;align=left;verticalAlign=top;spacingLeft=4;spacingRight=4;overflow=hidden;rotatable=0;points=[[0,0.5],[1,0.5]];portConstraint=eastwest;whiteSpace=wrap;html=1;fontSize=14;" vertex="1" parent="n-pGe4P9k0GeMnMvcZWK-32">
          <mxGeometry y="78" width="160" height="26" as="geometry" />
        </mxCell>
        <mxCell id="n-pGe4P9k0GeMnMvcZWK-34" value="" style="line;strokeWidth=1;fillColor=none;align=left;verticalAlign=middle;spacingTop=-1;spacingLeft=3;spacingRight=3;rotatable=0;labelPosition=right;points=[];portConstraint=eastwest;strokeColor=inherit;fontSize=14;" vertex="1" parent="n-pGe4P9k0GeMnMvcZWK-32">
          <mxGeometry y="104" width="160" height="8" as="geometry" />
        </mxCell>
        <mxCell id="n-pGe4P9k0GeMnMvcZWK-35" value="+ method(type): type" style="text;strokeColor=none;fillColor=none;align=left;verticalAlign=top;spacingLeft=4;spacingRight=4;overflow=hidden;rotatable=0;points=[[0,0.5],[1,0.5]];portConstraint=eastwest;whiteSpace=wrap;html=1;fontSize=14;" vertex="1" parent="n-pGe4P9k0GeMnMvcZWK-32">
          <mxGeometry y="112" width="160" height="26" as="geometry" />
        </mxCell>
        <mxCell id="n-pGe4P9k0GeMnMvcZWK-39" value="Classname" style="swimlane;fontStyle=1;align=center;verticalAlign=top;childLayout=stackLayout;horizontal=1;startSize=26;horizontalStack=0;resizeParent=1;resizeParentMax=0;resizeLast=0;collapsible=1;marginBottom=0;whiteSpace=wrap;html=1;" vertex="1" parent="1">
          <mxGeometry x="-630" y="640" width="160" height="86" as="geometry" />
        </mxCell>
        <mxCell id="n-pGe4P9k0GeMnMvcZWK-40" value="+ field: type" style="text;strokeColor=none;fillColor=none;align=left;verticalAlign=top;spacingLeft=4;spacingRight=4;overflow=hidden;rotatable=0;points=[[0,0.5],[1,0.5]];portConstraint=eastwest;whiteSpace=wrap;html=1;" vertex="1" parent="n-pGe4P9k0GeMnMvcZWK-39">
          <mxGeometry y="26" width="160" height="26" as="geometry" />
        </mxCell>
        <mxCell id="n-pGe4P9k0GeMnMvcZWK-41" value="" style="line;strokeWidth=1;fillColor=none;align=left;verticalAlign=middle;spacingTop=-1;spacingLeft=3;spacingRight=3;rotatable=0;labelPosition=right;points=[];portConstraint=eastwest;strokeColor=inherit;" vertex="1" parent="n-pGe4P9k0GeMnMvcZWK-39">
          <mxGeometry y="52" width="160" height="8" as="geometry" />
        </mxCell>
        <mxCell id="n-pGe4P9k0GeMnMvcZWK-42" value="+ method(type): type" style="text;strokeColor=none;fillColor=none;align=left;verticalAlign=top;spacingLeft=4;spacingRight=4;overflow=hidden;rotatable=0;points=[[0,0.5],[1,0.5]];portConstraint=eastwest;whiteSpace=wrap;html=1;" vertex="1" parent="n-pGe4P9k0GeMnMvcZWK-39">
          <mxGeometry y="60" width="160" height="26" as="geometry" />
        </mxCell>
        <mxCell id="n-pGe4P9k0GeMnMvcZWK-64" value="" style="endArrow=open;html=1;rounded=0;endFill=0;entryX=0.5;entryY=0;entryDx=0;entryDy=0;fontSize=14;exitX=0.5;exitY=0;exitDx=0;exitDy=0;" edge="1" parent="1" source="n-pGe4P9k0GeMnMvcZWK-27" target="n-pGe4P9k0GeMnMvcZWK-32">
          <mxGeometry width="50" height="50" relative="1" as="geometry">
            <mxPoint x="790" y="680" as="sourcePoint" />
            <mxPoint x="1030" y="890" as="targetPoint" />
          </mxGeometry>
        </mxCell>
        <mxCell id="n-pGe4P9k0GeMnMvcZWK-65" value="UserInterface" style="swimlane;fontStyle=1;align=center;verticalAlign=top;childLayout=stackLayout;horizontal=1;startSize=26;horizontalStack=0;resizeParent=1;resizeParentMax=0;resizeLast=0;collapsible=1;marginBottom=0;whiteSpace=wrap;html=1;" vertex="1" parent="1">
          <mxGeometry x="230" y="437" width="160" height="86" as="geometry" />
        </mxCell>
        <mxCell id="n-pGe4P9k0GeMnMvcZWK-66" value="+ field: type" style="text;strokeColor=none;fillColor=none;align=left;verticalAlign=top;spacingLeft=4;spacingRight=4;overflow=hidden;rotatable=0;points=[[0,0.5],[1,0.5]];portConstraint=eastwest;whiteSpace=wrap;html=1;" vertex="1" parent="n-pGe4P9k0GeMnMvcZWK-65">
          <mxGeometry y="26" width="160" height="26" as="geometry" />
        </mxCell>
        <mxCell id="n-pGe4P9k0GeMnMvcZWK-67" value="" style="line;strokeWidth=1;fillColor=none;align=left;verticalAlign=middle;spacingTop=-1;spacingLeft=3;spacingRight=3;rotatable=0;labelPosition=right;points=[];portConstraint=eastwest;strokeColor=inherit;" vertex="1" parent="n-pGe4P9k0GeMnMvcZWK-65">
          <mxGeometry y="52" width="160" height="8" as="geometry" />
        </mxCell>
        <mxCell id="n-pGe4P9k0GeMnMvcZWK-68" value="+ method(type): type" style="text;strokeColor=none;fillColor=none;align=left;verticalAlign=top;spacingLeft=4;spacingRight=4;overflow=hidden;rotatable=0;points=[[0,0.5],[1,0.5]];portConstraint=eastwest;whiteSpace=wrap;html=1;" vertex="1" parent="n-pGe4P9k0GeMnMvcZWK-65">
          <mxGeometry y="60" width="160" height="26" as="geometry" />
        </mxCell>
      </root>
    </mxGraphModel>
  </diagram>
</mxfile>
